<svg width="22" height="22" viewBox="0 0 22 22" fill="none" xmlns="http://www.w3.org/2000/svg">
<rect x="0.5" y="0.273193" width="21.2591" height="21.4536" rx="5.53642" fill="black"/>
<path fill-rule="evenodd" clip-rule="evenodd" d="M15.1474 6.19918C15.2695 6.30362 15.3883 6.41347 15.5035 6.52871C15.6187 6.64394 15.7286 6.76273 15.833 6.88476C16.1748 7.28408 16.1281 7.88482 15.7288 8.22657C15.3295 8.56831 14.7287 8.52164 14.387 8.12233C14.3145 8.03763 14.2381 7.95496 14.1577 7.87455C14.0772 7.79414 13.9946 7.71771 13.9099 7.64523C13.5106 7.30348 13.4639 6.70274 13.8056 6.30342C14.1474 5.90411 14.7481 5.85744 15.1474 6.19918ZM16.2733 9.54324C16.7973 9.50225 17.2553 9.89379 17.2963 10.4178C17.3216 10.7405 17.3216 11.0649 17.2963 11.3876C17.2553 11.9116 16.7973 12.3032 16.2733 12.2622C15.7494 12.2212 15.3578 11.7632 15.3988 11.2392C15.4163 11.0152 15.4163 10.7902 15.3988 10.5662C15.3578 10.0422 15.7494 9.58424 16.2733 9.54324ZM12.489 5.75886C12.448 6.28284 11.99 6.67438 11.466 6.63339C11.242 6.61587 11.017 6.61587 10.793 6.63339C10.269 6.67439 9.81103 6.28284 9.77004 5.75886C9.72904 5.23488 10.1206 4.77687 10.6446 4.73588C10.9673 4.71062 11.2917 4.71062 11.6144 4.73588C12.1384 4.77687 12.53 5.23488 12.489 5.75886ZM12.489 16.0466C12.53 16.5705 12.1384 17.0285 11.6144 17.0695C11.2917 17.0948 10.9673 17.0948 10.6446 17.0695C10.1206 17.0285 9.72904 16.5705 9.77004 16.0466C9.81103 15.5226 10.269 15.131 10.793 15.172C11.017 15.1895 11.242 15.1895 11.466 15.172C11.99 15.131 12.448 15.5226 12.489 16.0466ZM5.98565 9.54324C6.50964 9.58424 6.90118 10.0422 6.86018 10.5662C6.84266 10.7902 6.84266 11.0152 6.86018 11.2392C6.90118 11.7632 6.50964 12.2212 5.98565 12.2622C5.46167 12.3032 5.00366 11.9116 4.96267 11.3876C4.93742 11.0649 4.93742 10.7405 4.96267 10.4178C5.00366 9.89379 5.46167 9.50225 5.98565 9.54324ZM6.53022 13.5788C6.92953 13.2371 7.53028 13.2838 7.87202 13.6831C7.9445 13.7678 8.02093 13.8504 8.10135 13.9309C8.18176 14.0113 8.26443 14.0877 8.34912 14.1602C8.74843 14.5019 8.7951 15.1027 8.45336 15.502C8.11162 15.9013 7.51087 15.948 7.11156 15.6062C6.98953 15.5018 6.87073 15.3919 6.7555 15.2767C6.64027 15.1615 6.53041 15.0427 6.42598 14.9206C6.08423 14.5213 6.1309 13.9206 6.53022 13.5788Z" fill="white"/>
<path d="M8.3087 6.15863C8.65044 6.55795 8.60377 7.15869 8.20446 7.50044C8.11976 7.57292 8.03709 7.64935 7.95668 7.72976C7.87627 7.81017 7.79984 7.89284 7.72736 7.97753C7.38562 8.37685 6.78487 8.42352 6.38556 8.08178C5.98624 7.74003 5.93957 7.13929 6.28131 6.73997C6.38575 6.61794 6.4956 6.49915 6.61084 6.38391C6.72607 6.26868 6.84486 6.15883 6.9669 6.05439C7.36621 5.71265 7.96695 5.75932 8.3087 6.15863Z" fill="white"/>
<path d="M15.7282 13.5788C16.1275 13.9205 16.1742 14.5213 15.8324 14.9206C15.728 15.0426 15.6181 15.1614 15.5029 15.2766C15.3877 15.3919 15.2689 15.5017 15.1468 15.6061C14.7475 15.9479 14.1468 15.9012 13.805 15.5019C13.4633 15.1026 13.51 14.5018 13.9093 14.1601C13.994 14.0876 14.0766 14.0112 14.1571 13.9308C14.2375 13.8504 14.3139 13.7677 14.3864 13.683C14.7281 13.2837 15.3289 13.237 15.7282 13.5788Z" fill="white"/>
<circle cx="11.131" cy="10.9029" r="2.37914" fill="white"/>
</svg>
