<svg width="106" height="22" viewBox="0 0 106 22" fill="none" xmlns="http://www.w3.org/2000/svg">
<rect x="0.5" y="0.273193" width="21.2591" height="21.4536" rx="5.53642" fill="black"/>
<path fill-rule="evenodd" clip-rule="evenodd" d="M15.1474 6.19918C15.2695 6.30362 15.3883 6.41347 15.5035 6.52871C15.6187 6.64394 15.7286 6.76273 15.833 6.88476C16.1748 7.28408 16.1281 7.88482 15.7288 8.22657C15.3295 8.56831 14.7287 8.52164 14.387 8.12233C14.3145 8.03763 14.2381 7.95496 14.1577 7.87455C14.0772 7.79414 13.9946 7.71771 13.9099 7.64523C13.5106 7.30348 13.4639 6.70274 13.8056 6.30342C14.1474 5.90411 14.7481 5.85744 15.1474 6.19918ZM16.2733 9.54324C16.7973 9.50225 17.2553 9.89379 17.2963 10.4178C17.3216 10.7405 17.3216 11.0649 17.2963 11.3876C17.2553 11.9116 16.7973 12.3032 16.2733 12.2622C15.7494 12.2212 15.3578 11.7632 15.3988 11.2392C15.4163 11.0152 15.4163 10.7902 15.3988 10.5662C15.3578 10.0422 15.7494 9.58424 16.2733 9.54324ZM12.489 5.75886C12.448 6.28284 11.99 6.67438 11.466 6.63339C11.242 6.61587 11.017 6.61587 10.793 6.63339C10.269 6.67439 9.81103 6.28284 9.77004 5.75886C9.72904 5.23488 10.1206 4.77687 10.6446 4.73588C10.9673 4.71062 11.2917 4.71062 11.6144 4.73588C12.1384 4.77687 12.53 5.23488 12.489 5.75886ZM12.489 16.0466C12.53 16.5705 12.1384 17.0285 11.6144 17.0695C11.2917 17.0948 10.9673 17.0948 10.6446 17.0695C10.1206 17.0285 9.72904 16.5705 9.77004 16.0466C9.81103 15.5226 10.269 15.131 10.793 15.172C11.017 15.1895 11.242 15.1895 11.466 15.172C11.99 15.131 12.448 15.5226 12.489 16.0466ZM5.98565 9.54324C6.50964 9.58424 6.90118 10.0422 6.86018 10.5662C6.84266 10.7902 6.84266 11.0152 6.86018 11.2392C6.90118 11.7632 6.50964 12.2212 5.98565 12.2622C5.46167 12.3032 5.00366 11.9116 4.96267 11.3876C4.93742 11.0649 4.93742 10.7405 4.96267 10.4178C5.00366 9.89379 5.46167 9.50225 5.98565 9.54324ZM6.53022 13.5788C6.92953 13.2371 7.53028 13.2838 7.87202 13.6831C7.9445 13.7678 8.02093 13.8504 8.10135 13.9309C8.18176 14.0113 8.26443 14.0877 8.34912 14.1602C8.74843 14.5019 8.7951 15.1027 8.45336 15.502C8.11162 15.9013 7.51087 15.948 7.11156 15.6062C6.98953 15.5018 6.87073 15.3919 6.7555 15.2767C6.64027 15.1615 6.53041 15.0427 6.42598 14.9206C6.08423 14.5213 6.1309 13.9206 6.53022 13.5788Z" fill="white"/>
<path d="M8.3087 6.15863C8.65044 6.55795 8.60377 7.15869 8.20446 7.50044C8.11976 7.57292 8.03709 7.64935 7.95668 7.72976C7.87627 7.81017 7.79984 7.89284 7.72736 7.97753C7.38562 8.37685 6.78487 8.42352 6.38556 8.08178C5.98624 7.74003 5.93957 7.13929 6.28131 6.73997C6.38575 6.61794 6.4956 6.49915 6.61084 6.38391C6.72607 6.26868 6.84486 6.15883 6.9669 6.05439C7.36621 5.71265 7.96695 5.75932 8.3087 6.15863Z" fill="white"/>
<path d="M15.7282 13.5788C16.1275 13.9205 16.1742 14.5213 15.8324 14.9206C15.728 15.0426 15.6181 15.1614 15.5029 15.2766C15.3877 15.3919 15.2689 15.5017 15.1468 15.6061C14.7475 15.9479 14.1468 15.9012 13.805 15.5019C13.4633 15.1026 13.51 14.5018 13.9093 14.1601C13.994 14.0876 14.0766 14.0112 14.1571 13.9308C14.2375 13.8504 14.3139 13.7677 14.3864 13.683C14.7281 13.2837 15.3289 13.237 15.7282 13.5788Z" fill="white"/>
<circle cx="11.131" cy="10.9029" r="2.37914" fill="white"/>
<mask id="path-6-outside-1_305_5281" maskUnits="userSpaceOnUse" x="26.4901" y="3.46344" width="79" height="13" fill="black">
<rect fill="white" x="26.4901" y="3.46344" width="79" height="13"/>
<path d="M33.87 8.3488V15.3967H32.7961V14.222C32.5435 14.6738 32.2066 15.0252 31.7854 15.2762C31.3749 15.5172 30.8958 15.6376 30.3484 15.6376C29.8325 15.6376 29.3535 15.5372 28.9113 15.3364C28.4797 15.1356 28.1323 14.8395 27.8691 14.4479C27.6164 14.0564 27.4901 13.5946 27.4901 13.0624V8.3488H28.5639V12.6107C28.5639 14.0062 29.2166 14.7039 30.5221 14.7039C31.2801 14.7039 31.8486 14.4479 32.2276 13.9359C32.6066 13.4239 32.7961 12.7362 32.7961 11.8727V8.3488H33.87Z"/>
<path d="M40.1727 8.10785C40.6885 8.10785 41.1623 8.20825 41.5939 8.40904C42.0361 8.60984 42.3835 8.90601 42.6362 9.29756C42.8994 9.68911 43.031 10.1509 43.031 10.683V15.3967H41.9572V11.1348C41.9572 9.7393 41.3044 9.04154 39.999 9.04154C39.2409 9.04154 38.6724 9.29756 38.2934 9.80958C37.9144 10.3216 37.7249 11.0093 37.7249 11.8727V15.3967H36.6511V8.3488H37.7249V9.52345C37.9776 9.07166 38.3092 8.72529 38.7198 8.48434C39.1409 8.23335 39.6252 8.10785 40.1727 8.10785Z"/>
<path d="M52.7921 4.46344V15.3967H51.7183V14.3576C51.413 14.7592 51.0392 15.0754 50.597 15.3063C50.1549 15.5272 49.6706 15.6376 49.1442 15.6376C48.4388 15.6376 47.8071 15.477 47.2492 15.1557C46.6912 14.8345 46.2543 14.3877 45.9384 13.8154C45.6226 13.2432 45.4647 12.5906 45.4647 11.8577C45.4647 11.1348 45.6173 10.4923 45.9226 9.93006C46.2385 9.3578 46.6701 8.91103 47.2176 8.58976C47.7756 8.26849 48.4072 8.10785 49.1126 8.10785C49.6495 8.10785 50.1391 8.22331 50.5812 8.45422C51.034 8.6751 51.413 8.99135 51.7183 9.40297V4.46344H52.7921ZM49.1126 14.7039C49.6179 14.7039 50.0654 14.5835 50.4549 14.3425C50.855 14.1016 51.1656 13.7652 51.3866 13.3335C51.6077 12.9018 51.7183 12.4149 51.7183 11.8727C51.7183 11.3306 51.6077 10.8437 51.3866 10.412C51.1656 9.98026 50.855 9.64393 50.4549 9.40297C50.0654 9.16202 49.6179 9.04154 49.1126 9.04154C48.6178 9.04154 48.1756 9.16202 47.7861 9.40297C47.3966 9.64393 47.0912 9.98026 46.8702 10.412C46.6491 10.8336 46.5385 11.3155 46.5385 11.8577C46.5385 12.4099 46.6491 12.9018 46.8702 13.3335C47.0912 13.7652 47.3966 14.1016 47.7861 14.3425C48.1756 14.5835 48.6178 14.7039 49.1126 14.7039Z"/>
<path d="M58.7543 8.10785C59.4176 8.10785 60.0176 8.26347 60.5546 8.5747C61.0915 8.88593 61.5126 9.31262 61.8179 9.85476C62.1232 10.3869 62.2759 10.9842 62.2759 11.6468C62.2759 11.8376 62.2706 11.9832 62.2601 12.0836H56.1802C56.2223 12.8064 56.4697 13.4239 56.9224 13.9359C57.3751 14.4479 57.991 14.7039 58.7701 14.7039C59.4018 14.7039 59.9229 14.5935 60.3335 14.3726C60.7546 14.1417 61.0915 13.8255 61.3442 13.4239L62.1969 13.966C61.8495 14.4881 61.3915 14.8997 60.823 15.2009C60.2545 15.4921 59.5807 15.6376 58.8017 15.6376C58.0858 15.6376 57.4488 15.477 56.8909 15.1557C56.3329 14.8345 55.896 14.3877 55.5801 13.8154C55.2643 13.2432 55.1064 12.5956 55.1064 11.8727C55.1064 11.1499 55.259 10.5023 55.5643 9.93006C55.8802 9.3578 56.3118 8.91103 56.8593 8.58976C57.4172 8.26849 58.0489 8.10785 58.7543 8.10785ZM61.202 11.2402C61.0968 10.5073 60.8388 9.96018 60.4282 9.59875C60.0176 9.22728 59.4597 9.04154 58.7543 9.04154C58.07 9.04154 57.5067 9.25238 57.0646 9.67405C56.6329 10.0857 56.3592 10.6077 56.2434 11.2402H61.202Z"/>
<path d="M68.283 8.10785C68.5356 8.10785 68.7778 8.14299 69.0094 8.21327V9.14696C68.7883 9.04656 68.5462 8.99637 68.283 8.99637C67.8303 8.99637 67.4092 9.11684 67.0196 9.3578C66.6301 9.59875 66.3143 9.95014 66.0721 10.412C65.8405 10.8638 65.7247 11.4009 65.7247 12.0233V15.3967H64.6508V8.3488H65.7247V9.7644C66.0089 9.24234 66.3669 8.83573 66.7985 8.54458C67.2407 8.25343 67.7355 8.10785 68.283 8.10785Z"/>
<path d="M77.6613 8.3488V15.3967H76.5874V14.3576C76.2821 14.7592 75.9084 15.0754 75.4662 15.3063C75.024 15.5272 74.5397 15.6376 74.0133 15.6376C73.308 15.6376 72.6763 15.477 72.1183 15.1557C71.5603 14.8345 71.1234 14.3877 70.8076 13.8154C70.4917 13.2432 70.3338 12.5906 70.3338 11.8577C70.3338 11.1348 70.4865 10.4923 70.7918 9.93006C71.1076 9.3578 71.5393 8.91103 72.0867 8.58976C72.6447 8.26849 73.2764 8.10785 73.9818 8.10785C74.5187 8.10785 75.0082 8.22331 75.4504 8.45422C75.9031 8.6751 76.2821 8.99135 76.5874 9.40297V8.3488H77.6613ZM73.9818 14.7039C74.4871 14.7039 74.9345 14.5835 75.3241 14.3425C75.7241 14.1016 76.0347 13.7652 76.2558 13.3335C76.4769 12.9018 76.5874 12.4149 76.5874 11.8727C76.5874 11.3306 76.4769 10.8437 76.2558 10.412C76.0347 9.98026 75.7241 9.64393 75.3241 9.40297C74.9345 9.16202 74.4871 9.04154 73.9818 9.04154C73.4869 9.04154 73.0448 9.16202 72.6552 9.40297C72.2657 9.64393 71.9604 9.98026 71.7393 10.412C71.5182 10.8336 71.4077 11.3155 71.4077 11.8577C71.4077 12.4099 71.5182 12.9018 71.7393 13.3335C71.9604 13.7652 72.2657 14.1016 72.6552 14.3425C73.0448 14.5835 73.4869 14.7039 73.9818 14.7039Z"/>
<path d="M80.8283 15.3967V9.2825H79.5649V8.3488H80.8283V6.01457H81.9021V8.3488H83.6076V9.2825H81.9021V15.3967H80.8283Z"/>
<path d="M88.7936 15.6376C88.0882 15.6376 87.4565 15.477 86.8985 15.1557C86.3405 14.8345 85.9036 14.3877 85.5878 13.8154C85.272 13.2331 85.114 12.5805 85.114 11.8577C85.114 11.1348 85.2667 10.4923 85.572 9.93006C85.8878 9.3578 86.3195 8.91103 86.8669 8.58976C87.4249 8.26849 88.0566 8.10785 88.762 8.10785C89.4673 8.10785 90.099 8.26849 90.657 8.58976C91.215 8.91103 91.6519 9.3578 91.9677 9.93006C92.2836 10.5023 92.4415 11.1499 92.4415 11.8727C92.4415 12.5956 92.2836 13.2432 91.9677 13.8154C91.6624 14.3877 91.2308 14.8345 90.6728 15.1557C90.1253 15.477 89.4989 15.6376 88.7936 15.6376ZM88.762 14.7039C89.2673 14.7039 89.7147 14.5835 90.1043 14.3425C90.5043 14.1016 90.8149 13.7652 91.036 13.3335C91.2571 12.9018 91.3676 12.4149 91.3676 11.8727C91.3676 11.3306 91.2571 10.8437 91.036 10.412C90.8149 9.98026 90.5043 9.64393 90.1043 9.40297C89.7147 9.16202 89.2673 9.04154 88.762 9.04154C88.2672 9.04154 87.825 9.16202 87.4355 9.40297C87.0459 9.64393 86.7406 9.98026 86.5195 10.412C86.2984 10.8336 86.1879 11.3155 86.1879 11.8577C86.1879 12.4099 86.2984 12.9018 86.5195 13.3335C86.7406 13.7652 87.0459 14.1016 87.4355 14.3425C87.825 14.5835 88.2672 14.7039 88.762 14.7039Z"/>
<path d="M102.615 8.10785C103.3 8.10785 103.868 8.33877 104.321 8.80059C104.774 9.25238 105 9.87986 105 10.683V15.3967H103.926V11.1348C103.926 10.3919 103.779 9.85978 103.484 9.53851C103.189 9.2072 102.805 9.04154 102.331 9.04154C101.752 9.04154 101.299 9.2574 100.973 9.68911C100.657 10.1108 100.473 10.6881 100.42 11.421V15.3967H99.3465V11.1348C99.3465 10.3919 99.1991 9.85978 98.9043 9.53851C98.6095 9.2072 98.2253 9.04154 97.7515 9.04154C97.1093 9.04154 96.625 9.29756 96.2987 9.80958C95.9828 10.3216 95.8249 11.0093 95.8249 11.8727V15.3967H94.751V8.3488H95.8249V9.44815C96.067 9.01645 96.3723 8.68513 96.7408 8.45422C97.1198 8.22331 97.5515 8.10785 98.0358 8.10785C98.5727 8.10785 99.0412 8.24841 99.4412 8.52952C99.8413 8.80059 100.12 9.19214 100.278 9.70416C100.51 9.20218 100.826 8.81063 101.226 8.52952C101.626 8.24841 102.089 8.10785 102.615 8.10785Z"/>
</mask>
<path d="M33.87 8.3488V15.3967H32.7961V14.222C32.5435 14.6738 32.2066 15.0252 31.7854 15.2762C31.3749 15.5172 30.8958 15.6376 30.3484 15.6376C29.8325 15.6376 29.3535 15.5372 28.9113 15.3364C28.4797 15.1356 28.1323 14.8395 27.8691 14.4479C27.6164 14.0564 27.4901 13.5946 27.4901 13.0624V8.3488H28.5639V12.6107C28.5639 14.0062 29.2166 14.7039 30.5221 14.7039C31.2801 14.7039 31.8486 14.4479 32.2276 13.9359C32.6066 13.4239 32.7961 12.7362 32.7961 11.8727V8.3488H33.87Z" fill="#242424"/>
<path d="M40.1727 8.10785C40.6885 8.10785 41.1623 8.20825 41.5939 8.40904C42.0361 8.60984 42.3835 8.90601 42.6362 9.29756C42.8994 9.68911 43.031 10.1509 43.031 10.683V15.3967H41.9572V11.1348C41.9572 9.7393 41.3044 9.04154 39.999 9.04154C39.2409 9.04154 38.6724 9.29756 38.2934 9.80958C37.9144 10.3216 37.7249 11.0093 37.7249 11.8727V15.3967H36.6511V8.3488H37.7249V9.52345C37.9776 9.07166 38.3092 8.72529 38.7198 8.48434C39.1409 8.23335 39.6252 8.10785 40.1727 8.10785Z" fill="#242424"/>
<path d="M52.7921 4.46344V15.3967H51.7183V14.3576C51.413 14.7592 51.0392 15.0754 50.597 15.3063C50.1549 15.5272 49.6706 15.6376 49.1442 15.6376C48.4388 15.6376 47.8071 15.477 47.2492 15.1557C46.6912 14.8345 46.2543 14.3877 45.9384 13.8154C45.6226 13.2432 45.4647 12.5906 45.4647 11.8577C45.4647 11.1348 45.6173 10.4923 45.9226 9.93006C46.2385 9.3578 46.6701 8.91103 47.2176 8.58976C47.7756 8.26849 48.4072 8.10785 49.1126 8.10785C49.6495 8.10785 50.1391 8.22331 50.5812 8.45422C51.034 8.6751 51.413 8.99135 51.7183 9.40297V4.46344H52.7921ZM49.1126 14.7039C49.6179 14.7039 50.0654 14.5835 50.4549 14.3425C50.855 14.1016 51.1656 13.7652 51.3866 13.3335C51.6077 12.9018 51.7183 12.4149 51.7183 11.8727C51.7183 11.3306 51.6077 10.8437 51.3866 10.412C51.1656 9.98026 50.855 9.64393 50.4549 9.40297C50.0654 9.16202 49.6179 9.04154 49.1126 9.04154C48.6178 9.04154 48.1756 9.16202 47.7861 9.40297C47.3966 9.64393 47.0912 9.98026 46.8702 10.412C46.6491 10.8336 46.5385 11.3155 46.5385 11.8577C46.5385 12.4099 46.6491 12.9018 46.8702 13.3335C47.0912 13.7652 47.3966 14.1016 47.7861 14.3425C48.1756 14.5835 48.6178 14.7039 49.1126 14.7039Z" fill="#242424"/>
<path d="M58.7543 8.10785C59.4176 8.10785 60.0176 8.26347 60.5546 8.5747C61.0915 8.88593 61.5126 9.31262 61.8179 9.85476C62.1232 10.3869 62.2759 10.9842 62.2759 11.6468C62.2759 11.8376 62.2706 11.9832 62.2601 12.0836H56.1802C56.2223 12.8064 56.4697 13.4239 56.9224 13.9359C57.3751 14.4479 57.991 14.7039 58.7701 14.7039C59.4018 14.7039 59.9229 14.5935 60.3335 14.3726C60.7546 14.1417 61.0915 13.8255 61.3442 13.4239L62.1969 13.966C61.8495 14.4881 61.3915 14.8997 60.823 15.2009C60.2545 15.4921 59.5807 15.6376 58.8017 15.6376C58.0858 15.6376 57.4488 15.477 56.8909 15.1557C56.3329 14.8345 55.896 14.3877 55.5801 13.8154C55.2643 13.2432 55.1064 12.5956 55.1064 11.8727C55.1064 11.1499 55.259 10.5023 55.5643 9.93006C55.8802 9.3578 56.3118 8.91103 56.8593 8.58976C57.4172 8.26849 58.0489 8.10785 58.7543 8.10785ZM61.202 11.2402C61.0968 10.5073 60.8388 9.96018 60.4282 9.59875C60.0176 9.22728 59.4597 9.04154 58.7543 9.04154C58.07 9.04154 57.5067 9.25238 57.0646 9.67405C56.6329 10.0857 56.3592 10.6077 56.2434 11.2402H61.202Z" fill="#242424"/>
<path d="M68.283 8.10785C68.5356 8.10785 68.7778 8.14299 69.0094 8.21327V9.14696C68.7883 9.04656 68.5462 8.99637 68.283 8.99637C67.8303 8.99637 67.4092 9.11684 67.0196 9.3578C66.6301 9.59875 66.3143 9.95014 66.0721 10.412C65.8405 10.8638 65.7247 11.4009 65.7247 12.0233V15.3967H64.6508V8.3488H65.7247V9.7644C66.0089 9.24234 66.3669 8.83573 66.7985 8.54458C67.2407 8.25343 67.7355 8.10785 68.283 8.10785Z" fill="#242424"/>
<path d="M77.6613 8.3488V15.3967H76.5874V14.3576C76.2821 14.7592 75.9084 15.0754 75.4662 15.3063C75.024 15.5272 74.5397 15.6376 74.0133 15.6376C73.308 15.6376 72.6763 15.477 72.1183 15.1557C71.5603 14.8345 71.1234 14.3877 70.8076 13.8154C70.4917 13.2432 70.3338 12.5906 70.3338 11.8577C70.3338 11.1348 70.4865 10.4923 70.7918 9.93006C71.1076 9.3578 71.5393 8.91103 72.0867 8.58976C72.6447 8.26849 73.2764 8.10785 73.9818 8.10785C74.5187 8.10785 75.0082 8.22331 75.4504 8.45422C75.9031 8.6751 76.2821 8.99135 76.5874 9.40297V8.3488H77.6613ZM73.9818 14.7039C74.4871 14.7039 74.9345 14.5835 75.3241 14.3425C75.7241 14.1016 76.0347 13.7652 76.2558 13.3335C76.4769 12.9018 76.5874 12.4149 76.5874 11.8727C76.5874 11.3306 76.4769 10.8437 76.2558 10.412C76.0347 9.98026 75.7241 9.64393 75.3241 9.40297C74.9345 9.16202 74.4871 9.04154 73.9818 9.04154C73.4869 9.04154 73.0448 9.16202 72.6552 9.40297C72.2657 9.64393 71.9604 9.98026 71.7393 10.412C71.5182 10.8336 71.4077 11.3155 71.4077 11.8577C71.4077 12.4099 71.5182 12.9018 71.7393 13.3335C71.9604 13.7652 72.2657 14.1016 72.6552 14.3425C73.0448 14.5835 73.4869 14.7039 73.9818 14.7039Z" fill="#242424"/>
<path d="M80.8283 15.3967V9.2825H79.5649V8.3488H80.8283V6.01457H81.9021V8.3488H83.6076V9.2825H81.9021V15.3967H80.8283Z" fill="#242424"/>
<path d="M88.7936 15.6376C88.0882 15.6376 87.4565 15.477 86.8985 15.1557C86.3405 14.8345 85.9036 14.3877 85.5878 13.8154C85.272 13.2331 85.114 12.5805 85.114 11.8577C85.114 11.1348 85.2667 10.4923 85.572 9.93006C85.8878 9.3578 86.3195 8.91103 86.8669 8.58976C87.4249 8.26849 88.0566 8.10785 88.762 8.10785C89.4673 8.10785 90.099 8.26849 90.657 8.58976C91.215 8.91103 91.6519 9.3578 91.9677 9.93006C92.2836 10.5023 92.4415 11.1499 92.4415 11.8727C92.4415 12.5956 92.2836 13.2432 91.9677 13.8154C91.6624 14.3877 91.2308 14.8345 90.6728 15.1557C90.1253 15.477 89.4989 15.6376 88.7936 15.6376ZM88.762 14.7039C89.2673 14.7039 89.7147 14.5835 90.1043 14.3425C90.5043 14.1016 90.8149 13.7652 91.036 13.3335C91.2571 12.9018 91.3676 12.4149 91.3676 11.8727C91.3676 11.3306 91.2571 10.8437 91.036 10.412C90.8149 9.98026 90.5043 9.64393 90.1043 9.40297C89.7147 9.16202 89.2673 9.04154 88.762 9.04154C88.2672 9.04154 87.825 9.16202 87.4355 9.40297C87.0459 9.64393 86.7406 9.98026 86.5195 10.412C86.2984 10.8336 86.1879 11.3155 86.1879 11.8577C86.1879 12.4099 86.2984 12.9018 86.5195 13.3335C86.7406 13.7652 87.0459 14.1016 87.4355 14.3425C87.825 14.5835 88.2672 14.7039 88.762 14.7039Z" fill="#242424"/>
<path d="M102.615 8.10785C103.3 8.10785 103.868 8.33877 104.321 8.80059C104.774 9.25238 105 9.87986 105 10.683V15.3967H103.926V11.1348C103.926 10.3919 103.779 9.85978 103.484 9.53851C103.189 9.2072 102.805 9.04154 102.331 9.04154C101.752 9.04154 101.299 9.2574 100.973 9.68911C100.657 10.1108 100.473 10.6881 100.42 11.421V15.3967H99.3465V11.1348C99.3465 10.3919 99.1991 9.85978 98.9043 9.53851C98.6095 9.2072 98.2253 9.04154 97.7515 9.04154C97.1093 9.04154 96.625 9.29756 96.2987 9.80958C95.9828 10.3216 95.8249 11.0093 95.8249 11.8727V15.3967H94.751V8.3488H95.8249V9.44815C96.067 9.01645 96.3723 8.68513 96.7408 8.45422C97.1198 8.22331 97.5515 8.10785 98.0358 8.10785C98.5727 8.10785 99.0412 8.24841 99.4412 8.52952C99.8413 8.80059 100.12 9.19214 100.278 9.70416C100.51 9.20218 100.826 8.81063 101.226 8.52952C101.626 8.24841 102.089 8.10785 102.615 8.10785Z" fill="#242424"/>
<path d="M33.87 8.3488V15.3967H32.7961V14.222C32.5435 14.6738 32.2066 15.0252 31.7854 15.2762C31.3749 15.5172 30.8958 15.6376 30.3484 15.6376C29.8325 15.6376 29.3535 15.5372 28.9113 15.3364C28.4797 15.1356 28.1323 14.8395 27.8691 14.4479C27.6164 14.0564 27.4901 13.5946 27.4901 13.0624V8.3488H28.5639V12.6107C28.5639 14.0062 29.2166 14.7039 30.5221 14.7039C31.2801 14.7039 31.8486 14.4479 32.2276 13.9359C32.6066 13.4239 32.7961 12.7362 32.7961 11.8727V8.3488H33.87Z" stroke="black" stroke-width="0.692053" mask="url(#path-6-outside-1_305_5281)"/>
<path d="M40.1727 8.10785C40.6885 8.10785 41.1623 8.20825 41.5939 8.40904C42.0361 8.60984 42.3835 8.90601 42.6362 9.29756C42.8994 9.68911 43.031 10.1509 43.031 10.683V15.3967H41.9572V11.1348C41.9572 9.7393 41.3044 9.04154 39.999 9.04154C39.2409 9.04154 38.6724 9.29756 38.2934 9.80958C37.9144 10.3216 37.7249 11.0093 37.7249 11.8727V15.3967H36.6511V8.3488H37.7249V9.52345C37.9776 9.07166 38.3092 8.72529 38.7198 8.48434C39.1409 8.23335 39.6252 8.10785 40.1727 8.10785Z" stroke="black" stroke-width="0.692053" mask="url(#path-6-outside-1_305_5281)"/>
<path d="M52.7921 4.46344V15.3967H51.7183V14.3576C51.413 14.7592 51.0392 15.0754 50.597 15.3063C50.1549 15.5272 49.6706 15.6376 49.1442 15.6376C48.4388 15.6376 47.8071 15.477 47.2492 15.1557C46.6912 14.8345 46.2543 14.3877 45.9384 13.8154C45.6226 13.2432 45.4647 12.5906 45.4647 11.8577C45.4647 11.1348 45.6173 10.4923 45.9226 9.93006C46.2385 9.3578 46.6701 8.91103 47.2176 8.58976C47.7756 8.26849 48.4072 8.10785 49.1126 8.10785C49.6495 8.10785 50.1391 8.22331 50.5812 8.45422C51.034 8.6751 51.413 8.99135 51.7183 9.40297V4.46344H52.7921ZM49.1126 14.7039C49.6179 14.7039 50.0654 14.5835 50.4549 14.3425C50.855 14.1016 51.1656 13.7652 51.3866 13.3335C51.6077 12.9018 51.7183 12.4149 51.7183 11.8727C51.7183 11.3306 51.6077 10.8437 51.3866 10.412C51.1656 9.98026 50.855 9.64393 50.4549 9.40297C50.0654 9.16202 49.6179 9.04154 49.1126 9.04154C48.6178 9.04154 48.1756 9.16202 47.7861 9.40297C47.3966 9.64393 47.0912 9.98026 46.8702 10.412C46.6491 10.8336 46.5385 11.3155 46.5385 11.8577C46.5385 12.4099 46.6491 12.9018 46.8702 13.3335C47.0912 13.7652 47.3966 14.1016 47.7861 14.3425C48.1756 14.5835 48.6178 14.7039 49.1126 14.7039Z" stroke="black" stroke-width="0.692053" mask="url(#path-6-outside-1_305_5281)"/>
<path d="M58.7543 8.10785C59.4176 8.10785 60.0176 8.26347 60.5546 8.5747C61.0915 8.88593 61.5126 9.31262 61.8179 9.85476C62.1232 10.3869 62.2759 10.9842 62.2759 11.6468C62.2759 11.8376 62.2706 11.9832 62.2601 12.0836H56.1802C56.2223 12.8064 56.4697 13.4239 56.9224 13.9359C57.3751 14.4479 57.991 14.7039 58.7701 14.7039C59.4018 14.7039 59.9229 14.5935 60.3335 14.3726C60.7546 14.1417 61.0915 13.8255 61.3442 13.4239L62.1969 13.966C61.8495 14.4881 61.3915 14.8997 60.823 15.2009C60.2545 15.4921 59.5807 15.6376 58.8017 15.6376C58.0858 15.6376 57.4488 15.477 56.8909 15.1557C56.3329 14.8345 55.896 14.3877 55.5801 13.8154C55.2643 13.2432 55.1064 12.5956 55.1064 11.8727C55.1064 11.1499 55.259 10.5023 55.5643 9.93006C55.8802 9.3578 56.3118 8.91103 56.8593 8.58976C57.4172 8.26849 58.0489 8.10785 58.7543 8.10785ZM61.202 11.2402C61.0968 10.5073 60.8388 9.96018 60.4282 9.59875C60.0176 9.22728 59.4597 9.04154 58.7543 9.04154C58.07 9.04154 57.5067 9.25238 57.0646 9.67405C56.6329 10.0857 56.3592 10.6077 56.2434 11.2402H61.202Z" stroke="black" stroke-width="0.692053" mask="url(#path-6-outside-1_305_5281)"/>
<path d="M68.283 8.10785C68.5356 8.10785 68.7778 8.14299 69.0094 8.21327V9.14696C68.7883 9.04656 68.5462 8.99637 68.283 8.99637C67.8303 8.99637 67.4092 9.11684 67.0196 9.3578C66.6301 9.59875 66.3143 9.95014 66.0721 10.412C65.8405 10.8638 65.7247 11.4009 65.7247 12.0233V15.3967H64.6508V8.3488H65.7247V9.7644C66.0089 9.24234 66.3669 8.83573 66.7985 8.54458C67.2407 8.25343 67.7355 8.10785 68.283 8.10785Z" stroke="black" stroke-width="0.692053" mask="url(#path-6-outside-1_305_5281)"/>
<path d="M77.6613 8.3488V15.3967H76.5874V14.3576C76.2821 14.7592 75.9084 15.0754 75.4662 15.3063C75.024 15.5272 74.5397 15.6376 74.0133 15.6376C73.308 15.6376 72.6763 15.477 72.1183 15.1557C71.5603 14.8345 71.1234 14.3877 70.8076 13.8154C70.4917 13.2432 70.3338 12.5906 70.3338 11.8577C70.3338 11.1348 70.4865 10.4923 70.7918 9.93006C71.1076 9.3578 71.5393 8.91103 72.0867 8.58976C72.6447 8.26849 73.2764 8.10785 73.9818 8.10785C74.5187 8.10785 75.0082 8.22331 75.4504 8.45422C75.9031 8.6751 76.2821 8.99135 76.5874 9.40297V8.3488H77.6613ZM73.9818 14.7039C74.4871 14.7039 74.9345 14.5835 75.3241 14.3425C75.7241 14.1016 76.0347 13.7652 76.2558 13.3335C76.4769 12.9018 76.5874 12.4149 76.5874 11.8727C76.5874 11.3306 76.4769 10.8437 76.2558 10.412C76.0347 9.98026 75.7241 9.64393 75.3241 9.40297C74.9345 9.16202 74.4871 9.04154 73.9818 9.04154C73.4869 9.04154 73.0448 9.16202 72.6552 9.40297C72.2657 9.64393 71.9604 9.98026 71.7393 10.412C71.5182 10.8336 71.4077 11.3155 71.4077 11.8577C71.4077 12.4099 71.5182 12.9018 71.7393 13.3335C71.9604 13.7652 72.2657 14.1016 72.6552 14.3425C73.0448 14.5835 73.4869 14.7039 73.9818 14.7039Z" stroke="black" stroke-width="0.692053" mask="url(#path-6-outside-1_305_5281)"/>
<path d="M80.8283 15.3967V9.2825H79.5649V8.3488H80.8283V6.01457H81.9021V8.3488H83.6076V9.2825H81.9021V15.3967H80.8283Z" stroke="black" stroke-width="0.692053" mask="url(#path-6-outside-1_305_5281)"/>
<path d="M88.7936 15.6376C88.0882 15.6376 87.4565 15.477 86.8985 15.1557C86.3405 14.8345 85.9036 14.3877 85.5878 13.8154C85.272 13.2331 85.114 12.5805 85.114 11.8577C85.114 11.1348 85.2667 10.4923 85.572 9.93006C85.8878 9.3578 86.3195 8.91103 86.8669 8.58976C87.4249 8.26849 88.0566 8.10785 88.762 8.10785C89.4673 8.10785 90.099 8.26849 90.657 8.58976C91.215 8.91103 91.6519 9.3578 91.9677 9.93006C92.2836 10.5023 92.4415 11.1499 92.4415 11.8727C92.4415 12.5956 92.2836 13.2432 91.9677 13.8154C91.6624 14.3877 91.2308 14.8345 90.6728 15.1557C90.1253 15.477 89.4989 15.6376 88.7936 15.6376ZM88.762 14.7039C89.2673 14.7039 89.7147 14.5835 90.1043 14.3425C90.5043 14.1016 90.8149 13.7652 91.036 13.3335C91.2571 12.9018 91.3676 12.4149 91.3676 11.8727C91.3676 11.3306 91.2571 10.8437 91.036 10.412C90.8149 9.98026 90.5043 9.64393 90.1043 9.40297C89.7147 9.16202 89.2673 9.04154 88.762 9.04154C88.2672 9.04154 87.825 9.16202 87.4355 9.40297C87.0459 9.64393 86.7406 9.98026 86.5195 10.412C86.2984 10.8336 86.1879 11.3155 86.1879 11.8577C86.1879 12.4099 86.2984 12.9018 86.5195 13.3335C86.7406 13.7652 87.0459 14.1016 87.4355 14.3425C87.825 14.5835 88.2672 14.7039 88.762 14.7039Z" stroke="black" stroke-width="0.692053" mask="url(#path-6-outside-1_305_5281)"/>
<path d="M102.615 8.10785C103.3 8.10785 103.868 8.33877 104.321 8.80059C104.774 9.25238 105 9.87986 105 10.683V15.3967H103.926V11.1348C103.926 10.3919 103.779 9.85978 103.484 9.53851C103.189 9.2072 102.805 9.04154 102.331 9.04154C101.752 9.04154 101.299 9.2574 100.973 9.68911C100.657 10.1108 100.473 10.6881 100.42 11.421V15.3967H99.3465V11.1348C99.3465 10.3919 99.1991 9.85978 98.9043 9.53851C98.6095 9.2072 98.2253 9.04154 97.7515 9.04154C97.1093 9.04154 96.625 9.29756 96.2987 9.80958C95.9828 10.3216 95.8249 11.0093 95.8249 11.8727V15.3967H94.751V8.3488H95.8249V9.44815C96.067 9.01645 96.3723 8.68513 96.7408 8.45422C97.1198 8.22331 97.5515 8.10785 98.0358 8.10785C98.5727 8.10785 99.0412 8.24841 99.4412 8.52952C99.8413 8.80059 100.12 9.19214 100.278 9.70416C100.51 9.20218 100.826 8.81063 101.226 8.52952C101.626 8.24841 102.089 8.10785 102.615 8.10785Z" stroke="black" stroke-width="0.692053" mask="url(#path-6-outside-1_305_5281)"/>
</svg>
